<mxfile host="app.diagrams.net" agent="Mozilla/5.0 (Windows NT 10.0; Win64; x64) AppleWebKit/537.36 (KHTML, like Gecko) Chrome/129.0.0.0 Safari/537.36" version="24.8.0">
  <diagram id="C5RBs43oDa-KdzZeNtuy" name="Page-1">
    <mxGraphModel dx="856" dy="726" grid="1" gridSize="10" guides="1" tooltips="1" connect="1" arrows="1" fold="1" page="1" pageScale="1" pageWidth="827" pageHeight="1169" math="0" shadow="0">
      <root>
        <mxCell id="WIyWlLk6GJQsqaUBKTNV-0" />
        <mxCell id="WIyWlLk6GJQsqaUBKTNV-1" parent="WIyWlLk6GJQsqaUBKTNV-0" />
        <mxCell id="bXf6qjvEAu1AQfzfNr77-3" style="edgeStyle=orthogonalEdgeStyle;rounded=0;orthogonalLoop=1;jettySize=auto;html=1;entryX=0.5;entryY=0;entryDx=0;entryDy=0;" edge="1" parent="WIyWlLk6GJQsqaUBKTNV-1" source="bXf6qjvEAu1AQfzfNr77-0" target="bXf6qjvEAu1AQfzfNr77-1">
          <mxGeometry relative="1" as="geometry" />
        </mxCell>
        <mxCell id="bXf6qjvEAu1AQfzfNr77-0" value="Start" style="rounded=1;whiteSpace=wrap;html=1;arcSize=50;" vertex="1" parent="WIyWlLk6GJQsqaUBKTNV-1">
          <mxGeometry x="371" y="10" width="86" height="40" as="geometry" />
        </mxCell>
        <mxCell id="bXf6qjvEAu1AQfzfNr77-1" value="username,password" style="shape=parallelogram;perimeter=parallelogramPerimeter;whiteSpace=wrap;html=1;fixedSize=1;" vertex="1" parent="WIyWlLk6GJQsqaUBKTNV-1">
          <mxGeometry x="344" y="100" width="140" height="40" as="geometry" />
        </mxCell>
        <mxCell id="bXf6qjvEAu1AQfzfNr77-4" value="1.Add Movie" style="rounded=1;whiteSpace=wrap;html=1;" vertex="1" parent="WIyWlLk6GJQsqaUBKTNV-1">
          <mxGeometry x="42" y="240" width="88" height="40" as="geometry" />
        </mxCell>
        <mxCell id="bXf6qjvEAu1AQfzfNr77-5" value="2.Search Movie" style="rounded=1;whiteSpace=wrap;html=1;" vertex="1" parent="WIyWlLk6GJQsqaUBKTNV-1">
          <mxGeometry x="180" y="240" width="88" height="40" as="geometry" />
        </mxCell>
        <mxCell id="bXf6qjvEAu1AQfzfNr77-6" value="3.Delete Movie" style="rounded=1;whiteSpace=wrap;html=1;" vertex="1" parent="WIyWlLk6GJQsqaUBKTNV-1">
          <mxGeometry x="326" y="240" width="88" height="40" as="geometry" />
        </mxCell>
        <mxCell id="bXf6qjvEAu1AQfzfNr77-7" value="4.Update Movie" style="rounded=1;whiteSpace=wrap;html=1;" vertex="1" parent="WIyWlLk6GJQsqaUBKTNV-1">
          <mxGeometry x="470" y="240" width="90" height="40" as="geometry" />
        </mxCell>
        <mxCell id="bXf6qjvEAu1AQfzfNr77-9" value="5.List All Movie" style="rounded=1;whiteSpace=wrap;html=1;" vertex="1" parent="WIyWlLk6GJQsqaUBKTNV-1">
          <mxGeometry x="600" y="240" width="90" height="40" as="geometry" />
        </mxCell>
        <mxCell id="bXf6qjvEAu1AQfzfNr77-11" value="6.Exit" style="rounded=1;whiteSpace=wrap;html=1;" vertex="1" parent="WIyWlLk6GJQsqaUBKTNV-1">
          <mxGeometry x="720" y="240" width="90" height="40" as="geometry" />
        </mxCell>
        <mxCell id="bXf6qjvEAu1AQfzfNr77-12" value="Enter movie details:&amp;nbsp; &amp;nbsp; movie ID,title, genre,release year" style="rounded=1;whiteSpace=wrap;html=1;" vertex="1" parent="WIyWlLk6GJQsqaUBKTNV-1">
          <mxGeometry x="26" y="320" width="120" height="60" as="geometry" />
        </mxCell>
        <mxCell id="bXf6qjvEAu1AQfzfNr77-13" value="movie is added successfully" style="rounded=1;whiteSpace=wrap;html=1;" vertex="1" parent="WIyWlLk6GJQsqaUBKTNV-1">
          <mxGeometry x="26.5" y="420" width="119" height="40" as="geometry" />
        </mxCell>
        <mxCell id="bXf6qjvEAu1AQfzfNr77-14" value="Return to Main Menu?" style="rhombus;whiteSpace=wrap;html=1;" vertex="1" parent="WIyWlLk6GJQsqaUBKTNV-1">
          <mxGeometry x="25.5" y="500" width="120" height="60" as="geometry" />
        </mxCell>
        <mxCell id="bXf6qjvEAu1AQfzfNr77-16" value="Search by ID or title" style="rhombus;whiteSpace=wrap;html=1;" vertex="1" parent="WIyWlLk6GJQsqaUBKTNV-1">
          <mxGeometry x="164" y="320" width="120" height="60" as="geometry" />
        </mxCell>
      </root>
    </mxGraphModel>
  </diagram>
</mxfile>
